<svg version="1.1" xmlns="http://www.w3.org/2000/svg" xmlns:xlink="http://www.w3.org/1999/xlink" width="48" height="48" viewBox="0,0,48,48">
	<desc>phone_iphone icon - Licensed under Apache License v2.0 (http://www.apache.org/licenses/LICENSE-2.0) - Created with Iconfu.com - Derivative work of Material icons (Copyright Google Inc.)</desc>
	<g fill="#e20f55" fill-rule="nonzero" style="mix-blend-mode: normal">
		<path d="M36,7v34c0,2.76 -2.24,5 -5,5h-16c-2.76,0 -5,-2.24 -5,-5v-34c0,-2.76 2.24,-5 5,-5h16c2.76,0 5,2.24 5,5zM32,8h-18v28h18zM26,41c0,-1.66 -1.34,-3 -3,-3c-1.66,0 -3,1.34 -3,3c0,1.66 1.34,3 3,3c1.66,0 3,-1.34 3,-3z"/>
	</g>
</svg>